<?xml version="1.0" encoding="UTF-8" standalone="no"?>
<!-- Created with Inkscape (http://www.inkscape.org/) -->

<svg
		xmlns:osb="http://www.openswatchbook.org/uri/2009/osb"
		xmlns:dc="http://purl.org/dc/elements/1.1/"
		xmlns:cc="http://creativecommons.org/ns#"
		xmlns:rdf="http://www.w3.org/1999/02/22-rdf-syntax-ns#"
		xmlns:svg="http://www.w3.org/2000/svg"
		xmlns="http://www.w3.org/2000/svg"
		xmlns:xlink="http://www.w3.org/1999/xlink"
		xmlns:sodipodi="http://sodipodi.sourceforge.net/DTD/sodipodi-0.dtd"
		xmlns:inkscape="http://www.inkscape.org/namespaces/inkscape"
		width="1024"
		height="500"
		viewBox="0 0 270.93333 132.29167"
		version="1.1"
		id="svg8"
		sodipodi:docname="experiment-feature_graphic-2.svg"
		inkscape:export-filename="/home/carla/Android/Projects/random-ticker/assets/ic_launcher_background_v2.png"
		inkscape:export-xdpi="96.000008"
		inkscape:export-ydpi="96.000008"
		inkscape:version="0.92.3 (unknown)">
	<defs
			id="defs2">
		<pattern
				inkscape:collect="always"
				xlink:href="#pattern17746"
				id="pattern2180"
				patternTransform="matrix(0.26458333,0,0,0.26458333,0.08288381,164.79121)"/>
		<linearGradient
				id="linearGradient5871"
				osb:paint="solid">
			<stop
					style="stop-color:#9c27b0;stop-opacity:1;"
					offset="0"
					id="stop5869"/>
		</linearGradient>
		<meshgradient
				inkscape:collect="always"
				id="meshgradient5887"
				gradientUnits="userSpaceOnUse"
				x="0.1185616"
				y="26.449547"
				gradientTransform="matrix(1.0002636,0,0,0.48857368,-0.03570969,151.86866)">
			<meshrow
					id="meshrow9885">
				<meshpatch
						id="meshpatch9887">
					<stop
							path="c -114.631,-36.2857  244.72,-158.75  334.952,-158.75"
							style="stop-color:#ffffff;stop-opacity:1"
							id="stop9889"/>
					<stop
							path="c 165.553,211.096  136.83,370.033  136.827,460.176"
							style="stop-color:#9c27b0;stop-opacity:1"
							id="stop9891"/>
					<stop
							path="c -100.815,-48.3798  -382.307,69.5496  -471.783,-30.9921"
							style="stop-color:#00c853;stop-opacity:1"
							id="stop9893"/>
					<stop
							path="c -531.435,-170.275  45.3571,30.6227  0.004,-270.434"
							style="stop-color:#9c27b0;stop-opacity:1"
							id="stop9895"/>
				</meshpatch>
			</meshrow>
		</meshgradient>
		<pattern
				patternUnits="userSpaceOnUse"
				width="71"
				height="71"
				patternTransform="matrix(0.26458333,0,0,0.26458333,126.07396,221.46145)"
				id="pattern14011">
			<g
					transform="scale(2.9583333)"
					id="g14009"
					style="fill:#000000">
				<path
						style="fill:none"
						inkscape:connector-curvature="0"
						d="M 0,0 H 24 V 24 H 0 Z"
						id="path4"/>
				<path
						inkscape:connector-curvature="0"
						d="M 15,1 H 9 v 2 h 6 z m -4,13 h 2 V 8 H 11 Z M 19.03,7.39 20.45,5.97 C 20.02,5.46 19.55,4.98 19.04,4.56 L 17.62,5.98 C 16.07,4.74 14.12,4 12,4 7.03,4 3,8.03 3,13 c 0,4.97 4.02,9 9,9 4.98,0 9,-4.03 9,-9 0,-2.12 -0.74,-4.07 -1.97,-5.61 z M 12,20 C 8.13,20 5,16.87 5,13 5,9.13 8.13,6 12,6 c 3.87,0 7,3.13 7,7 0,3.87 -3.13,7 -7,7 z"
						id="path6"
						style="fill:#ffffff;fill-opacity:1"/>
			</g>
		</pattern>
		<pattern
				patternUnits="userSpaceOnUse"
				width="70.999999"
				height="70.999999"
				patternTransform="matrix(0.26458333,0,0,0.26458333,126.07396,221.46145)"
				id="pattern17746">
			<g
					transform="scale(2.9583333)"
					id="g14022"
					style="opacity:1;fill:#000000">
				<path
						style="fill:none"
						inkscape:connector-curvature="0"
						d="M 0,0 H 24 V 24 H 0 Z"
						id="path14018"/>
				<path
						inkscape:connector-curvature="0"
						d="M 15,1 H 9 v 2 h 6 z m -4,13 h 2 V 8 H 11 Z M 19.03,7.39 20.45,5.97 C 20.02,5.46 19.55,4.98 19.04,4.56 L 17.62,5.98 C 16.07,4.74 14.12,4 12,4 7.03,4 3,8.03 3,13 c 0,4.97 4.02,9 9,9 4.98,0 9,-4.03 9,-9 0,-2.12 -0.74,-4.07 -1.97,-5.61 z M 12,20 C 8.13,20 5,16.87 5,13 5,9.13 8.13,6 12,6 c 3.87,0 7,3.13 7,7 0,3.87 -3.13,7 -7,7 z"
						id="path14020"
						style="fill:#ffffff;fill-opacity:1"/>
			</g>
		</pattern>
	</defs>
	<sodipodi:namedview
			id="base"
			pagecolor="#ffffff"
			bordercolor="#666666"
			borderopacity="1.0"
			inkscape:pageopacity="0.0"
			inkscape:pageshadow="2"
			inkscape:zoom="0.98994949"
			inkscape:cx="448.84602"
			inkscape:cy="255.62216"
			inkscape:document-units="mm"
			inkscape:current-layer="layer1"
			showgrid="false"
			units="px"
			inkscape:window-width="1920"
			inkscape:window-height="965"
			inkscape:window-x="0"
			inkscape:window-y="30"
			inkscape:window-maximized="1"/>
	<metadata
			id="metadata5">
		<rdf:RDF>
			<cc:Work
					rdf:about="">
				<dc:format>image/svg+xml</dc:format>
				<dc:type
						rdf:resource="http://purl.org/dc/dcmitype/StillImage"/>
				<dc:title/>
			</cc:Work>
		</rdf:RDF>
	</metadata>
	<g
			inkscape:label="Layer 1"
			inkscape:groupmode="layer"
			id="layer1"
			transform="translate(0,-164.70832)">
		<rect
				style="opacity:1;vector-effect:none;fill:url(#meshgradient5887);fill-opacity:1;stroke:#9c27b0;stroke-width:0.16576631;stroke-linecap:butt;stroke-linejoin:miter;stroke-miterlimit:4;stroke-dasharray:none;stroke-dashoffset:0;stroke-opacity:1"
				id="rect815"
				width="270.76755"
				height="132.1259"
				x="0.082883164"
				y="164.79121"/>
		<g
				id="g3413"
				transform="translate(1.9405783,0.31398583)">
			<rect
					id="rect14016"
					y="221.46146"
					x="126.07396"
					height="18.785418"
					width="18.785418"
					style="fill:none;stroke:none"/>
			<rect
					inkscape:tile-y0="0.082893988"
					inkscape:tile-x0="0.082883163"
					inkscape:tile-h="18.785415"
					inkscape:tile-w="18.785415"
					inkscape:tile-cy="9.4756017"
					inkscape:tile-cx="9.4755909"
					id="rect17751"
					y="164.79121"
					x="0.082883164"
					height="18.785416"
					width="18.785416"
					style="fill:url(#pattern2180);stroke:none"/>
			<use
					id="use3014"
					xlink:href="#rect17751"
					inkscape:tiled-clone-of="#rect17751"
					y="0"
					x="0"
					width="100%"
					height="100%"/>
			<use
					id="use3016"
					transform="translate(0,18.785415)"
					xlink:href="#rect17751"
					inkscape:tiled-clone-of="#rect17751"
					y="0"
					x="0"
					width="100%"
					height="100%"/>
			<use
					id="use3018"
					transform="translate(0,37.570831)"
					xlink:href="#rect17751"
					inkscape:tiled-clone-of="#rect17751"
					y="0"
					x="0"
					width="100%"
					height="100%"/>
			<use
					id="use3020"
					transform="translate(0,56.356246)"
					xlink:href="#rect17751"
					inkscape:tiled-clone-of="#rect17751"
					y="0"
					x="0"
					width="100%"
					height="100%"/>
			<use
					id="use3022"
					transform="translate(0,75.141662)"
					xlink:href="#rect17751"
					inkscape:tiled-clone-of="#rect17751"
					y="0"
					x="0"
					width="100%"
					height="100%"/>
			<use
					id="use3024"
					transform="translate(0,93.927077)"
					xlink:href="#rect17751"
					inkscape:tiled-clone-of="#rect17751"
					y="0"
					x="0"
					width="100%"
					height="100%"/>
			<use
					id="use3026"
					transform="translate(0,112.71249)"
					xlink:href="#rect17751"
					inkscape:tiled-clone-of="#rect17751"
					y="0"
					x="0"
					width="100%"
					height="100%"/>
			<use
					id="use3028"
					transform="rotate(45,18.868299,196.85992)"
					xlink:href="#rect17751"
					inkscape:tiled-clone-of="#rect17751"
					y="0"
					x="0"
					width="100%"
					height="100%"/>
			<use
					id="use3030"
					transform="rotate(45,-3.8077038,206.25263)"
					xlink:href="#rect17751"
					inkscape:tiled-clone-of="#rect17751"
					y="0"
					x="0"
					width="100%"
					height="100%"/>
			<use
					id="use3032"
					transform="rotate(45,-26.483706,215.64534)"
					xlink:href="#rect17751"
					inkscape:tiled-clone-of="#rect17751"
					y="0"
					x="0"
					width="100%"
					height="100%"/>
			<use
					id="use3034"
					transform="rotate(45,-49.159708,225.03805)"
					xlink:href="#rect17751"
					inkscape:tiled-clone-of="#rect17751"
					y="0"
					x="0"
					width="100%"
					height="100%"/>
			<use
					id="use3036"
					transform="rotate(45,-71.835711,234.43075)"
					xlink:href="#rect17751"
					inkscape:tiled-clone-of="#rect17751"
					y="0"
					x="0"
					width="100%"
					height="100%"/>
			<use
					id="use3038"
					transform="rotate(45,-94.511713,243.82346)"
					xlink:href="#rect17751"
					inkscape:tiled-clone-of="#rect17751"
					y="0"
					x="0"
					width="100%"
					height="100%"/>
			<use
					id="use3040"
					transform="rotate(45,-117.18772,253.21617)"
					xlink:href="#rect17751"
					inkscape:tiled-clone-of="#rect17751"
					y="0"
					x="0"
					width="100%"
					height="100%"/>
			<use
					id="use3042"
					transform="rotate(90,28.261006,192.96934)"
					xlink:href="#rect17751"
					inkscape:tiled-clone-of="#rect17751"
					y="0"
					x="0"
					width="100%"
					height="100%"/>
			<use
					id="use3044"
					transform="rotate(90,18.868299,202.36204)"
					xlink:href="#rect17751"
					inkscape:tiled-clone-of="#rect17751"
					y="0"
					x="0"
					width="100%"
					height="100%"/>
			<use
					id="use3046"
					transform="rotate(90,9.4755909,211.75475)"
					xlink:href="#rect17751"
					inkscape:tiled-clone-of="#rect17751"
					y="0"
					x="0"
					width="100%"
					height="100%"/>
			<use
					id="use3048"
					transform="rotate(90,0.08288316,221.14746)"
					xlink:href="#rect17751"
					inkscape:tiled-clone-of="#rect17751"
					y="0"
					x="0"
					width="100%"
					height="100%"/>
			<use
					id="use3050"
					transform="rotate(90,-9.3098245,230.54017)"
					xlink:href="#rect17751"
					inkscape:tiled-clone-of="#rect17751"
					y="0"
					x="0"
					width="100%"
					height="100%"/>
			<use
					id="use3052"
					transform="rotate(90,-18.702532,239.93288)"
					xlink:href="#rect17751"
					inkscape:tiled-clone-of="#rect17751"
					y="0"
					x="0"
					width="100%"
					height="100%"/>
			<use
					id="use3054"
					transform="rotate(90,-28.09524,249.32558)"
					xlink:href="#rect17751"
					inkscape:tiled-clone-of="#rect17751"
					y="0"
					x="0"
					width="100%"
					height="100%"/>
			<use
					id="use3056"
					transform="rotate(135,37.653714,185.85568)"
					xlink:href="#rect17751"
					inkscape:tiled-clone-of="#rect17751"
					y="0"
					x="0"
					width="100%"
					height="100%"/>
			<use
					id="use3058"
					transform="rotate(135,33.763127,195.24839)"
					xlink:href="#rect17751"
					inkscape:tiled-clone-of="#rect17751"
					y="0"
					x="0"
					width="100%"
					height="100%"/>
			<use
					id="use3060"
					transform="rotate(135,29.87254,204.6411)"
					xlink:href="#rect17751"
					inkscape:tiled-clone-of="#rect17751"
					y="0"
					x="0"
					width="100%"
					height="100%"/>
			<use
					id="use3062"
					transform="rotate(135,25.981953,214.03381)"
					xlink:href="#rect17751"
					inkscape:tiled-clone-of="#rect17751"
					y="0"
					x="0"
					width="100%"
					height="100%"/>
			<use
					id="use3064"
					transform="rotate(135,22.091366,223.42651)"
					xlink:href="#rect17751"
					inkscape:tiled-clone-of="#rect17751"
					y="0"
					x="0"
					width="100%"
					height="100%"/>
			<use
					id="use3066"
					transform="rotate(135,18.200779,232.81922)"
					xlink:href="#rect17751"
					inkscape:tiled-clone-of="#rect17751"
					y="0"
					x="0"
					width="100%"
					height="100%"/>
			<use
					id="use3068"
					transform="rotate(135,14.310192,242.21193)"
					xlink:href="#rect17751"
					inkscape:tiled-clone-of="#rect17751"
					y="0"
					x="0"
					width="100%"
					height="100%"/>
			<use
					id="use3070"
					transform="rotate(180,47.046422,174.18392)"
					xlink:href="#rect17751"
					inkscape:tiled-clone-of="#rect17751"
					y="0"
					x="0"
					width="100%"
					height="100%"/>
			<use
					id="use3072"
					transform="rotate(180,47.046422,183.57663)"
					xlink:href="#rect17751"
					inkscape:tiled-clone-of="#rect17751"
					y="0"
					x="0"
					width="100%"
					height="100%"/>
			<use
					id="use3074"
					transform="rotate(180,47.046422,192.96934)"
					xlink:href="#rect17751"
					inkscape:tiled-clone-of="#rect17751"
					y="0"
					x="0"
					width="100%"
					height="100%"/>
			<use
					id="use3076"
					transform="rotate(180,47.046422,202.36204)"
					xlink:href="#rect17751"
					inkscape:tiled-clone-of="#rect17751"
					y="0"
					x="0"
					width="100%"
					height="100%"/>
			<use
					id="use3078"
					transform="rotate(180,47.046422,211.75475)"
					xlink:href="#rect17751"
					inkscape:tiled-clone-of="#rect17751"
					y="0"
					x="0"
					width="100%"
					height="100%"/>
			<use
					id="use3080"
					transform="rotate(180,47.046422,221.14746)"
					xlink:href="#rect17751"
					inkscape:tiled-clone-of="#rect17751"
					y="0"
					x="0"
					width="100%"
					height="100%"/>
			<use
					id="use3082"
					transform="rotate(180,47.046422,230.54017)"
					xlink:href="#rect17751"
					inkscape:tiled-clone-of="#rect17751"
					y="0"
					x="0"
					width="100%"
					height="100%"/>
			<use
					id="use3084"
					transform="rotate(-135,56.439129,154.73099)"
					xlink:href="#rect17751"
					inkscape:tiled-clone-of="#rect17751"
					y="0"
					x="0"
					width="100%"
					height="100%"/>
			<use
					id="use3086"
					transform="rotate(-135,60.329716,164.12369)"
					xlink:href="#rect17751"
					inkscape:tiled-clone-of="#rect17751"
					y="0"
					x="0"
					width="100%"
					height="100%"/>
			<use
					id="use3088"
					transform="rotate(-135,64.220303,173.5164)"
					xlink:href="#rect17751"
					inkscape:tiled-clone-of="#rect17751"
					y="0"
					x="0"
					width="100%"
					height="100%"/>
			<use
					id="use3090"
					transform="rotate(-135,68.11089,182.90911)"
					xlink:href="#rect17751"
					inkscape:tiled-clone-of="#rect17751"
					y="0"
					x="0"
					width="100%"
					height="100%"/>
			<use
					id="use3092"
					transform="rotate(-135,72.001477,192.30182)"
					xlink:href="#rect17751"
					inkscape:tiled-clone-of="#rect17751"
					y="0"
					x="0"
					width="100%"
					height="100%"/>
			<use
					id="use3094"
					transform="rotate(-135,75.892064,201.69453)"
					xlink:href="#rect17751"
					inkscape:tiled-clone-of="#rect17751"
					y="0"
					x="0"
					width="100%"
					height="100%"/>
			<use
					id="use3096"
					transform="rotate(-135,79.782651,211.08723)"
					xlink:href="#rect17751"
					inkscape:tiled-clone-of="#rect17751"
					y="0"
					x="0"
					width="100%"
					height="100%"/>
			<use
					id="use3098"
					transform="rotate(-90,65.831837,117.82768)"
					xlink:href="#rect17751"
					inkscape:tiled-clone-of="#rect17751"
					y="0"
					x="0"
					width="100%"
					height="100%"/>
			<use
					id="use3100"
					transform="rotate(-90,75.224545,127.22038)"
					xlink:href="#rect17751"
					inkscape:tiled-clone-of="#rect17751"
					y="0"
					x="0"
					width="100%"
					height="100%"/>
			<use
					id="use3102"
					transform="rotate(-90,84.617253,136.61309)"
					xlink:href="#rect17751"
					inkscape:tiled-clone-of="#rect17751"
					y="0"
					x="0"
					width="100%"
					height="100%"/>
			<use
					id="use3104"
					transform="rotate(-90,94.00996,146.0058)"
					xlink:href="#rect17751"
					inkscape:tiled-clone-of="#rect17751"
					y="0"
					x="0"
					width="100%"
					height="100%"/>
			<use
					id="use3106"
					transform="rotate(-90,103.40267,155.39851)"
					xlink:href="#rect17751"
					inkscape:tiled-clone-of="#rect17751"
					y="0"
					x="0"
					width="100%"
					height="100%"/>
			<use
					id="use3108"
					transform="rotate(-90,112.79538,164.79121)"
					xlink:href="#rect17751"
					inkscape:tiled-clone-of="#rect17751"
					y="0"
					x="0"
					width="100%"
					height="100%"/>
			<use
					id="use3110"
					transform="rotate(-90,122.18808,174.18392)"
					xlink:href="#rect17751"
					inkscape:tiled-clone-of="#rect17751"
					y="0"
					x="0"
					width="100%"
					height="100%"/>
			<use
					id="use3112"
					transform="rotate(-45,75.224545,15.451905)"
					xlink:href="#rect17751"
					inkscape:tiled-clone-of="#rect17751"
					y="0"
					x="0"
					width="100%"
					height="100%"/>
			<use
					id="use3114"
					transform="rotate(-45,97.900547,24.844613)"
					xlink:href="#rect17751"
					inkscape:tiled-clone-of="#rect17751"
					y="0"
					x="0"
					width="100%"
					height="100%"/>
			<use
					id="use3116"
					transform="rotate(-45,120.57655,34.237321)"
					xlink:href="#rect17751"
					inkscape:tiled-clone-of="#rect17751"
					y="0"
					x="0"
					width="100%"
					height="100%"/>
			<use
					id="use3118"
					transform="rotate(-45,143.25255,43.630028)"
					xlink:href="#rect17751"
					inkscape:tiled-clone-of="#rect17751"
					y="0"
					x="0"
					width="100%"
					height="100%"/>
			<use
					id="use3120"
					transform="rotate(-45,165.92855,53.022736)"
					xlink:href="#rect17751"
					inkscape:tiled-clone-of="#rect17751"
					y="0"
					x="0"
					width="100%"
					height="100%"/>
			<use
					id="use3122"
					transform="rotate(-45,188.60456,62.415444)"
					xlink:href="#rect17751"
					inkscape:tiled-clone-of="#rect17751"
					y="0"
					x="0"
					width="100%"
					height="100%"/>
			<use
					id="use3124"
					transform="rotate(-45,211.28056,71.808152)"
					xlink:href="#rect17751"
					inkscape:tiled-clone-of="#rect17751"
					y="0"
					x="0"
					width="100%"
					height="100%"/>
			<use
					id="use3126"
					transform="translate(150.28332)"
					xlink:href="#rect17751"
					inkscape:tiled-clone-of="#rect17751"
					y="0"
					x="0"
					width="100%"
					height="100%"/>
			<use
					id="use3128"
					transform="translate(150.28332,18.785415)"
					xlink:href="#rect17751"
					inkscape:tiled-clone-of="#rect17751"
					y="0"
					x="0"
					width="100%"
					height="100%"/>
			<use
					id="use3130"
					transform="translate(150.28332,37.570831)"
					xlink:href="#rect17751"
					inkscape:tiled-clone-of="#rect17751"
					y="0"
					x="0"
					width="100%"
					height="100%"/>
			<use
					id="use3132"
					transform="translate(150.28332,56.356246)"
					xlink:href="#rect17751"
					inkscape:tiled-clone-of="#rect17751"
					y="0"
					x="0"
					width="100%"
					height="100%"/>
			<use
					id="use3134"
					transform="translate(150.28332,75.141662)"
					xlink:href="#rect17751"
					inkscape:tiled-clone-of="#rect17751"
					y="0"
					x="0"
					width="100%"
					height="100%"/>
			<use
					id="use3136"
					transform="translate(150.28332,93.927077)"
					xlink:href="#rect17751"
					inkscape:tiled-clone-of="#rect17751"
					y="0"
					x="0"
					width="100%"
					height="100%"/>
			<use
					id="use3138"
					transform="translate(150.28332,112.71249)"
					xlink:href="#rect17751"
					inkscape:tiled-clone-of="#rect17751"
					y="0"
					x="0"
					width="100%"
					height="100%"/>
			<use
					id="use3140"
					transform="rotate(45,94.00996,378.26794)"
					xlink:href="#rect17751"
					inkscape:tiled-clone-of="#rect17751"
					y="0"
					x="0"
					width="100%"
					height="100%"/>
			<use
					id="use3142"
					transform="rotate(45,71.333958,387.66065)"
					xlink:href="#rect17751"
					inkscape:tiled-clone-of="#rect17751"
					y="0"
					x="0"
					width="100%"
					height="100%"/>
			<use
					id="use3144"
					transform="rotate(45,48.657956,397.05336)"
					xlink:href="#rect17751"
					inkscape:tiled-clone-of="#rect17751"
					y="0"
					x="0"
					width="100%"
					height="100%"/>
			<use
					id="use3146"
					transform="rotate(45,25.981953,406.44607)"
					xlink:href="#rect17751"
					inkscape:tiled-clone-of="#rect17751"
					y="0"
					x="0"
					width="100%"
					height="100%"/>
			<use
					id="use3148"
					transform="rotate(45,3.3059509,415.83877)"
					xlink:href="#rect17751"
					inkscape:tiled-clone-of="#rect17751"
					y="0"
					x="0"
					width="100%"
					height="100%"/>
			<use
					id="use3150"
					transform="rotate(45,-19.370051,425.23148)"
					xlink:href="#rect17751"
					inkscape:tiled-clone-of="#rect17751"
					y="0"
					x="0"
					width="100%"
					height="100%"/>
			<use
					id="use3152"
					transform="rotate(45,-42.046054,434.62419)"
					xlink:href="#rect17751"
					inkscape:tiled-clone-of="#rect17751"
					y="0"
					x="0"
					width="100%"
					height="100%"/>
			<use
					id="use3154"
					transform="rotate(90,103.40267,268.111)"
					xlink:href="#rect17751"
					inkscape:tiled-clone-of="#rect17751"
					y="0"
					x="0"
					width="100%"
					height="100%"/>
			<use
					id="use3156"
					transform="rotate(90,94.00996,277.50371)"
					xlink:href="#rect17751"
					inkscape:tiled-clone-of="#rect17751"
					y="0"
					x="0"
					width="100%"
					height="100%"/>
			<use
					id="use3158"
					transform="rotate(90,84.617253,286.89641)"
					xlink:href="#rect17751"
					inkscape:tiled-clone-of="#rect17751"
					y="0"
					x="0"
					width="100%"
					height="100%"/>
			<use
					id="use3160"
					transform="rotate(90,75.224545,296.28912)"
					xlink:href="#rect17751"
					inkscape:tiled-clone-of="#rect17751"
					y="0"
					x="0"
					width="100%"
					height="100%"/>
			<use
					id="use3162"
					transform="rotate(90,65.831837,305.68183)"
					xlink:href="#rect17751"
					inkscape:tiled-clone-of="#rect17751"
					y="0"
					x="0"
					width="100%"
					height="100%"/>
			<use
					id="use3164"
					transform="rotate(90,56.439129,315.07454)"
					xlink:href="#rect17751"
					inkscape:tiled-clone-of="#rect17751"
					y="0"
					x="0"
					width="100%"
					height="100%"/>
			<use
					id="use3166"
					transform="rotate(90,47.046422,324.46725)"
					xlink:href="#rect17751"
					inkscape:tiled-clone-of="#rect17751"
					y="0"
					x="0"
					width="100%"
					height="100%"/>
			<use
					id="use3168"
					transform="rotate(135,112.79538,216.98038)"
					xlink:href="#rect17751"
					inkscape:tiled-clone-of="#rect17751"
					y="0"
					x="0"
					width="100%"
					height="100%"/>
			<use
					id="use3170"
					transform="rotate(135,108.90479,226.37309)"
					xlink:href="#rect17751"
					inkscape:tiled-clone-of="#rect17751"
					y="0"
					x="0"
					width="100%"
					height="100%"/>
			<use
					id="use3172"
					transform="rotate(135,105.0142,235.76579)"
					xlink:href="#rect17751"
					inkscape:tiled-clone-of="#rect17751"
					y="0"
					x="0"
					width="100%"
					height="100%"/>
			<use
					id="use3174"
					transform="rotate(135,101.12361,245.1585)"
					xlink:href="#rect17751"
					inkscape:tiled-clone-of="#rect17751"
					y="0"
					x="0"
					width="100%"
					height="100%"/>
			<use
					id="use3176"
					transform="rotate(135,97.233028,254.55121)"
					xlink:href="#rect17751"
					inkscape:tiled-clone-of="#rect17751"
					y="0"
					x="0"
					width="100%"
					height="100%"/>
			<use
					id="use3178"
					transform="rotate(135,93.342441,263.94392)"
					xlink:href="#rect17751"
					inkscape:tiled-clone-of="#rect17751"
					y="0"
					x="0"
					width="100%"
					height="100%"/>
			<use
					id="use3180"
					transform="rotate(135,89.451854,273.33662)"
					xlink:href="#rect17751"
					inkscape:tiled-clone-of="#rect17751"
					y="0"
					x="0"
					width="100%"
					height="100%"/>
			<use
					id="use3182"
					transform="rotate(180,122.18808,174.18392)"
					xlink:href="#rect17751"
					inkscape:tiled-clone-of="#rect17751"
					y="0"
					x="0"
					width="100%"
					height="100%"/>
			<use
					id="use3184"
					transform="rotate(180,122.18808,183.57663)"
					xlink:href="#rect17751"
					inkscape:tiled-clone-of="#rect17751"
					y="0"
					x="0"
					width="100%"
					height="100%"/>
			<use
					id="use3186"
					transform="rotate(180,122.18808,192.96934)"
					xlink:href="#rect17751"
					inkscape:tiled-clone-of="#rect17751"
					y="0"
					x="0"
					width="100%"
					height="100%"/>
			<use
					id="use3188"
					transform="rotate(180,122.18808,202.36204)"
					xlink:href="#rect17751"
					inkscape:tiled-clone-of="#rect17751"
					y="0"
					x="0"
					width="100%"
					height="100%"/>
			<use
					id="use3190"
					transform="rotate(180,122.18808,211.75475)"
					xlink:href="#rect17751"
					inkscape:tiled-clone-of="#rect17751"
					y="0"
					x="0"
					width="100%"
					height="100%"/>
			<use
					id="use3192"
					transform="rotate(180,122.18808,221.14746)"
					xlink:href="#rect17751"
					inkscape:tiled-clone-of="#rect17751"
					y="0"
					x="0"
					width="100%"
					height="100%"/>
			<use
					id="use3194"
					transform="rotate(180,122.18808,230.54017)"
					xlink:href="#rect17751"
					inkscape:tiled-clone-of="#rect17751"
					y="0"
					x="0"
					width="100%"
					height="100%"/>
			<use
					id="use3196"
					transform="rotate(-135,131.58079,123.60629)"
					xlink:href="#rect17751"
					inkscape:tiled-clone-of="#rect17751"
					y="0"
					x="0"
					width="100%"
					height="100%"/>
			<use
					id="use3198"
					transform="rotate(-135,135.47138,132.999)"
					xlink:href="#rect17751"
					inkscape:tiled-clone-of="#rect17751"
					y="0"
					x="0"
					width="100%"
					height="100%"/>
			<use
					id="use3200"
					transform="rotate(-135,139.36196,142.39171)"
					xlink:href="#rect17751"
					inkscape:tiled-clone-of="#rect17751"
					y="0"
					x="0"
					width="100%"
					height="100%"/>
			<use
					id="use3202"
					transform="rotate(-135,143.25255,151.78441)"
					xlink:href="#rect17751"
					inkscape:tiled-clone-of="#rect17751"
					y="0"
					x="0"
					width="100%"
					height="100%"/>
			<use
					id="use3204"
					transform="rotate(-135,147.14314,161.17712)"
					xlink:href="#rect17751"
					inkscape:tiled-clone-of="#rect17751"
					y="0"
					x="0"
					width="100%"
					height="100%"/>
			<use
					id="use3206"
					transform="rotate(-135,151.03373,170.56983)"
					xlink:href="#rect17751"
					inkscape:tiled-clone-of="#rect17751"
					y="0"
					x="0"
					width="100%"
					height="100%"/>
			<use
					id="use3208"
					transform="rotate(-135,154.92431,179.96254)"
					xlink:href="#rect17751"
					inkscape:tiled-clone-of="#rect17751"
					y="0"
					x="0"
					width="100%"
					height="100%"/>
		</g>
	</g>
</svg>
